<mxfile host="app.diagrams.net" modified="2024-03-28T04:10:31.086Z" agent="Mozilla/5.0 (Windows NT 10.0; Win64; x64) AppleWebKit/537.36 (KHTML, like Gecko) Chrome/122.0.0.0 Safari/537.36 Edg/122.0.0.0" etag="QlqDhAzE3ajStQZHzJVJ" version="24.2.0" type="device">
  <diagram name="Page-1" id="7cnzy3bjsnMomUNspBQk">
    <mxGraphModel dx="1002" dy="569" grid="1" gridSize="10" guides="1" tooltips="1" connect="1" arrows="1" fold="1" page="1" pageScale="1" pageWidth="850" pageHeight="1100" math="0" shadow="0">
      <root>
        <mxCell id="0" />
        <mxCell id="1" parent="0" />
        <mxCell id="Or4BDGOubW8CrgneWwq1-1" value="Actor" style="shape=umlActor;verticalLabelPosition=bottom;verticalAlign=top;html=1;" vertex="1" parent="1">
          <mxGeometry x="70" y="220" width="30" height="60" as="geometry" />
        </mxCell>
        <mxCell id="Or4BDGOubW8CrgneWwq1-2" value="" style="rounded=0;whiteSpace=wrap;html=1;fillColor=none;" vertex="1" parent="1">
          <mxGeometry x="240" y="90" width="470" height="330" as="geometry" />
        </mxCell>
        <mxCell id="Or4BDGOubW8CrgneWwq1-3" value="Mua hàng" style="ellipse;whiteSpace=wrap;html=1;" vertex="1" parent="1">
          <mxGeometry x="310" y="120" width="140" height="70" as="geometry" />
        </mxCell>
        <mxCell id="Or4BDGOubW8CrgneWwq1-4" value="Chọn sản phẩm" style="ellipse;whiteSpace=wrap;html=1;" vertex="1" parent="1">
          <mxGeometry x="530" y="120" width="140" height="70" as="geometry" />
        </mxCell>
        <mxCell id="Or4BDGOubW8CrgneWwq1-5" value="Địa điểm giao hàng" style="ellipse;whiteSpace=wrap;html=1;" vertex="1" parent="1">
          <mxGeometry x="530" y="220" width="140" height="70" as="geometry" />
        </mxCell>
        <mxCell id="Or4BDGOubW8CrgneWwq1-6" value="Phương thức thanh toán" style="ellipse;whiteSpace=wrap;html=1;" vertex="1" parent="1">
          <mxGeometry x="530" y="310" width="140" height="70" as="geometry" />
        </mxCell>
        <mxCell id="Or4BDGOubW8CrgneWwq1-7" value="include" style="endArrow=open;endSize=12;dashed=1;html=1;rounded=0;exitX=1;exitY=0.5;exitDx=0;exitDy=0;entryX=0;entryY=0.5;entryDx=0;entryDy=0;" edge="1" parent="1" source="Or4BDGOubW8CrgneWwq1-3" target="Or4BDGOubW8CrgneWwq1-4">
          <mxGeometry width="160" relative="1" as="geometry">
            <mxPoint x="340" y="210" as="sourcePoint" />
            <mxPoint x="500" y="210" as="targetPoint" />
          </mxGeometry>
        </mxCell>
        <mxCell id="Or4BDGOubW8CrgneWwq1-8" value="include" style="endArrow=open;endSize=12;dashed=1;html=1;rounded=0;entryX=0;entryY=0.5;entryDx=0;entryDy=0;exitX=1;exitY=0.5;exitDx=0;exitDy=0;" edge="1" parent="1" source="Or4BDGOubW8CrgneWwq1-3" target="Or4BDGOubW8CrgneWwq1-5">
          <mxGeometry width="160" relative="1" as="geometry">
            <mxPoint x="450" y="160" as="sourcePoint" />
            <mxPoint x="540" y="165" as="targetPoint" />
          </mxGeometry>
        </mxCell>
        <mxCell id="Or4BDGOubW8CrgneWwq1-10" value="include" style="endArrow=open;endSize=12;dashed=1;html=1;rounded=0;entryX=0;entryY=0.5;entryDx=0;entryDy=0;exitX=1;exitY=0.5;exitDx=0;exitDy=0;" edge="1" parent="1" source="Or4BDGOubW8CrgneWwq1-3" target="Or4BDGOubW8CrgneWwq1-6">
          <mxGeometry width="160" relative="1" as="geometry">
            <mxPoint x="420" y="240" as="sourcePoint" />
            <mxPoint x="580" y="240" as="targetPoint" />
          </mxGeometry>
        </mxCell>
        <mxCell id="Or4BDGOubW8CrgneWwq1-14" value="" style="endArrow=none;html=1;rounded=0;entryX=0;entryY=0.5;entryDx=0;entryDy=0;" edge="1" parent="1" target="Or4BDGOubW8CrgneWwq1-3">
          <mxGeometry width="50" height="50" relative="1" as="geometry">
            <mxPoint x="120" y="260" as="sourcePoint" />
            <mxPoint x="490" y="260" as="targetPoint" />
          </mxGeometry>
        </mxCell>
      </root>
    </mxGraphModel>
  </diagram>
</mxfile>
